<?xml version="1.0" encoding="utf-8"?>
<!-- Generator: Adobe Illustrator 21.0.0, SVG Export Plug-In . SVG Version: 6.00 Build 0)  -->
<svg version="1.1" id="Calque_1" xmlns="http://www.w3.org/2000/svg" xmlns:xlink="http://www.w3.org/1999/xlink" x="0px" y="0px"
	 viewBox="0 0 300 34" style="enable-background:new 0 0 300 34;" xml:space="preserve">
<style type="text/css">
	.st0{fill:#573287;}
	.st1{fill:#64B255;}
	.st2{fill:#00B34B;}
	.st3{fill:#582283;}
	.st4{font-family:'DaxMedium';}
	.st5{font-size:36.5154px;}
</style>
<g>
	<g>
		<path class="st0" d="M0.2,14.1c1.7,1,2.9,2.4,4.1,3.9C6,20,7.4,22,8.8,24c1.5,2.2,3.2,4.2,4.5,6.6c0.4,0.7,1.2,1.2,1.9,1.6
			c0.2,0.1,0.6,0.3,0.5,0.7c-0.1,0.3-0.4,0.3-0.7,0.3c-2.6,0-5.2,0.3-7.7-0.1c-1.9-0.3-3.7-1.4-5-3c-0.5-0.6-1.2-1-1.3-1.9
			c0-0.3-0.3-0.7-0.7-0.3C0.2,23.3,0.2,18.7,0.2,14.1z"/>
		<path class="st1" d="M17,1.6c3.2,0,6.4,0,9.6,0c1,0,1.3,0.3,0.7,1.2c-1.4,2.3-2,4.9-3.2,7.3c-1.2,2.2-1.8,4.7-3,6.8
			c-1.1,1.8-1.4,3.9-2.8,5.4c-0.8,0.9-1.6,1-2.4,0c-1.5-1.7-2.6-3.8-3.8-5.7C10,13.3,8.5,9.5,5.5,6.8c-0.6-0.5-1.3-1-1.9-1.4
			C2.8,4.9,2.7,4.3,3.4,3.6C3.7,3.3,4,3,4.4,2.9c1.2-0.4,2.1-1.3,3.5-1.3C10.9,1.7,13.9,1.6,17,1.6C17,1.6,17,1.6,17,1.6z"/>
		<path class="st0" d="M17.7,33.9c1.9-1.8,4.1-3.1,5.3-5.4c0.6-1.1,1.1-2.2,1.8-3.1c0.6-0.8,0.9-1.8,1.2-2.7c0.8-2.2,2.1-4,2.8-6.2
			c0.4-1.1,0.9-2.2,1.3-3.3c0.3-1,1.1-1.9,1.4-2.9C31.7,9.6,32,9,32.2,8.4c0.2-0.6,0.6-1.2,1.3-1.1c0.7,0.1,0.6,0.8,0.7,1.3
			c0.2,5.9,0.4,11.7-0.1,17.6c-0.2,2.1-1.6,4-3.5,5.3c-1.7,1.2-3.6,1.5-5.6,1.9C22.5,33.8,20.1,33.6,17.7,33.9z"/>
	</g>
</g>
<g>
	<path class="st2" d="M41.8,28.4V9.1h12.9v2.4h-8v5.8h7.1v2.4h-7.1V26h8v2.4H41.8z"/>
	<path class="st2" d="M67.9,15.5c-0.7-0.2-1.4-0.3-2.2-0.3c-0.9,0-1.6,0.1-2.2,0.4v12.8h-4.7V14.1c2.3-0.8,5.6-1.2,10-1.1L67.9,15.5
		z"/>
	<path class="st2" d="M76.2,10.2c-0.5,0.3-1.1,0.5-1.8,0.5c-0.7,0-1.3-0.2-1.8-0.5c-0.5-0.3-0.7-0.7-0.7-1.2c0-0.5,0.2-0.9,0.7-1.2
		c0.5-0.3,1.1-0.5,1.8-0.5c0.7,0,1.3,0.2,1.8,0.5C76.7,8.1,77,8.5,77,9C77,9.4,76.7,9.8,76.2,10.2z M72.1,28.4V13.3h4.7v15.1H72.1z"
		/>
	<path class="st2" d="M89.3,28.7c-2.4,0-4.4-0.7-5.9-2.1c-1.5-1.4-2.3-3.3-2.3-5.8c0-2.4,0.8-4.4,2.4-5.8c1.5-1.3,3.5-2,5.8-2
		c2.1,0,3.7,0.3,4.8,1l-1,1.9c-0.7-0.4-1.7-0.6-2.8-0.6c-3,0-4.5,1.8-4.5,5.4c0,1.7,0.4,3,1.2,4c0.8,1,1.9,1.5,3.3,1.5
		c1.1,0,2.1-0.2,2.8-0.7l1.1,2.1C93.1,28.4,91.5,28.7,89.3,28.7z"/>
	<path class="st3" d="M121.1,28.7c-3.2,0-5.7-1-7.6-2.9c-1.7-1.8-2.5-4.2-2.5-7c0-2.8,0.9-5.1,2.6-6.9c1.9-2,4.4-3,7.6-3
		c2.2,0,4,0.4,5.4,1.1l-1.1,2.1c-1-0.4-2.2-0.7-3.4-0.7c-2.1,0-3.7,0.8-4.7,2.3c-0.9,1.3-1.3,3-1.3,5.1c0,2.1,0.5,3.7,1.4,5
		c1.1,1.5,2.6,2.2,4.6,2.2c1.2,0,2.4-0.2,3.3-0.7l1.1,2.3C125.3,28.3,123.5,28.7,121.1,28.7z"/>
	<path class="st3" d="M130.4,28.4v-22h4.7v22H130.4z"/>
	<path class="st3" d="M154.4,26.5c-1.5,1.5-3.7,2.2-6.5,2.2c-2.8,0-4.9-0.7-6.5-2.2c-1.4-1.4-2.1-3.2-2.1-5.6c0-2.4,0.7-4.2,2.1-5.6
		c1.5-1.5,3.7-2.2,6.5-2.2c2.8,0,5,0.7,6.5,2.2c1.4,1.4,2.1,3.3,2.1,5.6C156.5,23.2,155.8,25.1,154.4,26.5z M148,15.2
		c-2.6,0-3.9,1.9-3.9,5.7c0,3.7,1.3,5.5,3.9,5.5c2.6,0,3.9-1.8,3.9-5.5C151.9,17.1,150.6,15.2,148,15.2z"/>
	<path class="st3" d="M170.5,27.3c-1.3,0.9-3.1,1.3-5.3,1.3c-2.3,0-4.2-0.4-5.7-1.1l1.2-2.2c1,0.6,2.3,0.9,3.9,0.9
		c0.9,0,1.7-0.2,2.3-0.6c0.6-0.4,0.9-0.9,0.9-1.5c0-0.6-0.2-1.1-0.7-1.5c-0.5-0.4-1.2-0.7-2.3-1c-3.1-0.9-4.7-2.3-4.7-4.2
		c0-1.2,0.6-2.3,1.8-3.1s2.8-1.3,4.7-1.3c2.1,0,3.9,0.4,5.3,1.1l-1.1,2c-0.9-0.6-2-0.8-3.3-0.8c-0.9,0-1.6,0.2-2.2,0.6
		c-0.5,0.4-0.8,0.9-0.8,1.4c0,1,1,1.8,3.1,2.4c3.3,1,4.9,2.5,4.9,4.5C172.5,25.3,171.8,26.4,170.5,27.3z"/>
	<path class="st3" d="M188,34.5V28c-1.1,0.4-2.4,0.6-3.9,0.6c-2.5,0-4.5-0.7-6-2c-1.5-1.3-2.3-3.1-2.3-5.4c0-2.5,0.8-4.4,2.4-5.9
		c1.7-1.6,4.3-2.4,7.6-2.4c2.8,0,5.1,0.4,6.8,1.1v20.4H188z M188,15.3c-0.6-0.2-1.4-0.3-2.4-0.3c-3.4,0-5.1,2-5.1,6
		c0,3.7,1.6,5.6,4.9,5.6c1,0,1.9-0.2,2.7-0.5V15.3z"/>
	<path class="st3" d="M205.5,28.7c-5.3,0-8-1.7-8-5.1V13.3h4.7v10.5c0,1.7,1.2,2.6,3.5,2.6c1.3,0,2.3-0.2,3.1-0.5V13.3h4.7v14.2
		C211.4,28.3,208.7,28.7,205.5,28.7z"/>
	<path class="st3" d="M222.1,22.1c0.4,2.8,2.3,4.2,5.6,4.2c2,0,3.7-0.3,5.2-0.8l1.1,2.2c-1.8,0.7-4,1.1-6.8,1.1c-3,0-5.3-0.7-7-2.1
		s-2.6-3.3-2.6-5.8c0-2.5,0.8-4.4,2.3-5.7c1.6-1.4,3.7-2.1,6.4-2.1c2.7,0,4.8,0.7,6.3,2s2.1,3.2,2,5.8L222.1,22.1z M226.3,15.1
		c-1.4,0-2.5,0.4-3.3,1.3c-0.8,0.9-1.2,2.2-1.2,4l8.5-1C230.3,16.5,229,15.1,226.3,15.1z"/>
	<path class="st3" d="M245.5,28.6c-1.9,0-3.3-0.4-4.4-1.3c-0.9-0.7-1.3-1.7-1.3-2.8v-9h-2.3v-2.2h2.3V9.9l4.7-1v4.3h3.4v2.2h-3.4
		v8.8c0,1.3,0.8,2,2.3,2c0.3,0,0.7,0,1.1-0.1v2.1C247.2,28.5,246.5,28.6,245.5,28.6z"/>
	<path class="st3" d="M257.2,28c-0.5,0.4-1.2,0.6-2,0.6c-0.8,0-1.5-0.2-2-0.6c-0.5-0.4-0.8-0.9-0.8-1.4c0-0.6,0.3-1.1,0.8-1.5
		c0.5-0.4,1.2-0.6,2-0.6c0.8,0,1.4,0.2,2,0.6c0.5,0.4,0.8,0.9,0.8,1.5C258,27.1,257.7,27.6,257.2,28z"/>
	<path class="st3" d="M276.9,26.5c-1.7,1.5-4.2,2.2-7.4,2.2c-3,0-5.3-0.4-6.8-1.1V6.4h4.6v7.3c1.2-0.4,2.6-0.6,4-0.6
		c2.4,0,4.4,0.7,5.9,2c1.5,1.3,2.2,3.1,2.2,5.4C279.5,23.1,278.7,25.1,276.9,26.5z M270.2,15.1c-1.1,0-2.1,0.1-2.8,0.4v10.8
		c0.6,0.2,1.4,0.3,2.4,0.3c3.4,0,5.2-2,5.2-5.9C274.9,16.9,273.3,15.1,270.2,15.1z"/>
	<path class="st3" d="M287.4,22.1c0.4,2.8,2.3,4.2,5.6,4.2c2,0,3.7-0.3,5.2-0.8l1.1,2.2c-1.8,0.7-4,1.1-6.8,1.1c-3,0-5.3-0.7-7-2.1
		c-1.7-1.4-2.6-3.3-2.6-5.8c0-2.5,0.8-4.4,2.3-5.7c1.6-1.4,3.7-2.1,6.4-2.1c2.7,0,4.8,0.7,6.3,2c1.4,1.3,2.1,3.2,2,5.8L287.4,22.1z
		 M291.6,15.1c-1.4,0-2.5,0.4-3.3,1.3c-0.8,0.9-1.2,2.2-1.2,4l8.5-1C295.6,16.5,294.3,15.1,291.6,15.1z"/>
</g>
<text transform="matrix(1.0515 0 0 1 94.4214 32.8193)" class="st2 st4 st5">-</text>
</svg>
